<svg width="233" height="39" viewBox="0 0 233 39" fill="none" xmlns="http://www.w3.org/2000/svg">
<path d="M91.5646 11.2585C90.7931 10.4528 89.8457 9.85275 88.8029 9.50946C87.7065 9.1197 86.5562 8.91893 85.3974 8.91512C84.2175 8.87387 83.0485 9.16115 82.0114 9.74719C81.0963 10.3008 80.642 11.0378 80.642 11.9615C80.642 13.123 81.1028 13.9211 82.031 14.3389C82.9592 14.7566 84.4104 15.0826 86.3877 15.266C93.2119 15.8751 96.624 18.8683 96.624 24.2456C96.6689 26.062 96.0896 27.8356 94.9898 29.2482C93.915 30.6188 92.4899 31.6464 90.8783 32.2131C89.1114 32.8276 87.2606 33.1418 85.3974 33.1437C83.0378 33.1873 80.6968 32.702 78.534 31.7207C76.5471 30.8685 74.8726 29.3817 73.7524 27.4754L77.292 23.6377C78.2554 24.931 79.5274 25.9402 80.9819 26.5652C82.3875 27.2034 83.9028 27.5396 85.4366 27.5535C87.0076 27.5535 88.2887 27.2501 89.2801 26.6433C90.2715 26.0366 90.7661 25.2441 90.7639 24.266C90.7987 23.7544 90.6984 23.2426 90.4738 22.7859C90.2491 22.3293 89.9087 21.945 89.4893 21.6747C88.6177 21.0815 87.2538 20.7056 85.3974 20.5471C84.0196 20.4221 82.6522 20.1951 81.3055 19.8679C80.156 19.5665 79.0495 19.1098 78.0143 18.5094C76.9783 17.9342 76.1358 17.0445 75.599 15.9589C75.0234 14.7229 74.7549 13.3568 74.8179 11.9853C74.7916 10.7654 75.062 9.5584 75.6042 8.47609C76.1464 7.39379 76.9428 6.47125 77.9195 5.794C79.9633 4.30646 82.4439 3.56156 85.3614 3.55929C87.2725 3.51302 89.1752 3.83545 90.9731 4.51023C92.6537 5.23237 94.1375 6.37306 95.2938 7.83173L91.5646 11.2585Z" fill="white"/>
<path d="M110.599 32.264V21.7799C110.599 18.9339 109.521 17.5097 107.363 17.5075C106.883 17.4924 106.406 17.6 105.975 17.8208C105.543 18.0417 105.171 18.369 104.889 18.7742C104.267 19.6595 103.946 20.735 103.978 21.8308V32.264H98.4966V12.7222H103.278L103.674 14.9433C104.639 13.1773 106.288 12.2943 108.622 12.2943C111.236 12.2943 113.063 13.5078 114.103 15.935C114.775 14.7837 115.7 13.8143 116.802 13.106C117.891 12.5081 119.111 12.2155 120.342 12.2569C122.575 12.2569 124.384 12.9678 125.767 14.3897C127.151 15.8116 127.841 18.2116 127.839 21.5897V32.264H122.322V21.7018C122.322 18.9848 121.37 17.6263 119.466 17.6263C118.986 17.6111 118.51 17.712 118.074 17.9213C117.638 18.1306 117.256 18.4424 116.956 18.832C116.312 19.666 115.975 20.711 116.005 21.7799V32.264H110.599Z" fill="white"/>
<path d="M145.39 12.7223H150.528V32.2641H145.583L145.276 29.812C144.669 30.7819 143.784 31.5291 142.746 31.9482C141.711 32.4058 140.602 32.6603 139.478 32.6988C136.61 32.726 134.277 31.8203 132.477 29.9818C130.677 28.1433 129.776 25.646 129.774 22.4898C129.774 19.32 130.707 16.8147 132.572 14.9739C134.437 13.1332 136.79 12.2366 139.631 12.2841C140.778 12.2687 141.914 12.512 142.962 12.9974C143.884 13.3995 144.662 14.0905 145.187 14.9739L145.39 12.7223ZM136.677 18.7132C135.736 19.6505 135.266 20.9105 135.268 22.4932C135.27 24.0758 135.74 25.3279 136.677 26.2494C137.632 27.1782 138.902 27.6753 140.21 27.6316C140.877 27.6574 141.542 27.5371 142.161 27.2785C142.78 27.0199 143.341 26.6288 143.805 26.1305C144.244 25.6813 144.593 25.1458 144.832 24.5552C145.07 23.9646 145.193 23.3306 145.194 22.6901C145.232 21.2927 144.766 19.9309 143.887 18.8728C143.015 17.8381 141.79 17.3207 140.21 17.3207C139.562 17.2984 138.916 17.41 138.309 17.649C137.703 17.8881 137.148 18.2498 136.677 18.7132Z" fill="white"/>
<path d="M157.924 12.763L158.342 14.8992C159.534 13.1581 161.209 12.2875 163.366 12.2875C165.062 12.2567 166.706 12.8923 167.971 14.0671L165.703 18.5773C164.827 17.9232 163.774 17.5769 162.696 17.589C161.544 17.5522 160.424 17.9849 159.574 18.7947C158.738 19.5984 158.318 20.6988 158.316 22.0958V32.264H152.825V12.763H157.924Z" fill="white"/>
<path d="M178.168 6.677V12.1347H182.926V16.8894H178.122V24.2388C178.122 25.9777 178.832 26.8471 180.253 26.8471C181.041 26.8767 181.824 26.7138 182.541 26.3717L183.796 31.1264C182.529 31.6321 181.193 31.9256 179.838 31.9958C177.633 32.1022 175.89 31.5554 174.609 30.3554C173.328 29.1554 172.687 27.1177 172.687 24.2422V16.8826H169.337V12.1279H172.687V7.31209L178.168 6.677Z" fill="white"/>
<path d="M207.805 4.80225H210.014V4.8396L200.954 18.2479L210.736 32.4067V32.444H208.302L199.693 19.7897L191.097 32.444H188.662V32.4067L198.444 18.2479L189.385 4.8396V4.80225H191.63L199.693 16.6415L207.805 4.80225Z" fill="white"/>
<path d="M214.694 22.8735V32.444H212.639V4.7547H224.323C235.892 4.7547 235.892 22.8667 224.323 22.8667L214.694 22.8735ZM214.694 6.73809V20.9377H224.323C233.19 20.9377 233.19 6.73809 224.323 6.73809H214.694Z" fill="white"/>
<path d="M10.5599 0L5.21947 9.30223L5.18025 9.2343L0 18.258L8.1021 32.3693L13.2823 23.3456L10.452 18.4177L18.894 3.71546L16.7598 0H10.5599Z" fill="#FFCB06"/>
<path d="M50.9364 5.75671L45.7169 14.8484L48.4884 19.6744L39.9941 34.4649L42.0957 38.126H48.3544L53.721 28.7864L53.7504 28.8374L58.9666 19.7491L50.9364 5.75671Z" fill="#FFCB06"/>
<path d="M39.2817 0H35.0526L28.0225 12.2433L30.137 15.9282L39.2817 0Z" fill="#FFCB06"/>
<path d="M13.9459 36.7572H18.1784L28.0225 19.6131L25.9046 15.9282L13.9459 36.7572Z" fill="#FFCB06"/>
<path d="M21.0086 0.0272827L18.894 3.71557L25.9045 15.9284L28.0224 12.2435L21.0086 0.0272827Z" fill="#BF8C0C"/>
<path d="M33.2549 21.3553L31.1371 25.0402L37.8665 36.7572H37.8926L39.9942 33.0961L33.2549 21.3553Z" fill="#BF8C0C"/>
<path d="M37.8926 36.7571H42.0956L39.9941 33.0959L37.8926 36.7571Z" fill="#FFCB06"/>
<path d="M28.0223 12.2434L25.9044 15.9283L28.0223 19.6132L30.1369 15.9283L28.0223 12.2434Z" fill="#FFCB06"/>
<path d="M20.3745 36.7571H24.4109L31.137 25.0401L29.1205 21.525L20.3745 36.7571Z" fill="#FFCB06"/>
<path d="M45.5143 0H41.4779L31.2351 17.8403L33.2549 21.3554L45.5143 0Z" fill="#FFCB06"/>
<path d="M31.2351 17.8403L29.1205 21.5252L31.137 25.0403L33.2549 21.3554L31.2351 17.8403Z" fill="#FFCB06"/>
</svg>
