<svg width="42" height="42" viewBox="0 0 42 42" fill="none" xmlns="http://www.w3.org/2000/svg">
<circle cx="21" cy="21" r="21" fill="#34C38F" fill-opacity="0.24"/>
<path fill-rule="evenodd" clip-rule="evenodd" d="M23.2049 18.2699C22.8997 19.4905 20.9999 18.8704 20.4093 18.703L20.9507 16.5571C21.561 16.7343 23.5199 16.9902 23.2049 18.2699ZM20.1436 19.8057L19.553 22.178C20.2814 22.365 22.5357 23.0836 22.8703 21.7449C23.2247 20.3471 20.8721 19.9828 20.1436 19.8057ZM30.5484 22.0697C29.2294 27.3459 23.8941 30.555 18.6178 29.2359C13.3416 27.9169 10.1355 22.5815 11.4516 17.3053C12.7706 12.029 18.1059 8.82392 23.3822 10.139C28.6486 11.4581 31.8577 16.7934 30.5484 22.0697ZM23.1754 15.7992L23.6184 14.0273L22.5356 13.7812L22.1025 15.4842C21.817 15.4153 21.5315 15.3464 21.2362 15.2873L21.6693 13.545L20.5964 13.2891L20.1534 15.0511C19.9171 14.992 19.6809 14.9428 19.4643 14.8837L17.9779 14.5097L17.6826 15.6614C17.6826 15.6614 18.4898 15.8484 18.4701 15.8583C18.9131 15.9666 18.9918 16.2422 18.9721 16.4883L17.7614 21.3413C17.7121 21.4791 17.5546 21.6562 17.2692 21.607C17.279 21.6169 16.4817 21.4102 16.4817 21.4102L15.9501 22.6406L17.3479 22.995C17.6137 23.0639 17.8696 23.1328 18.1256 23.1919L17.6728 24.9834L18.7556 25.2591L19.1985 23.4773C19.4939 23.5561 19.7793 23.625 20.055 23.7037L19.612 25.4658L20.6948 25.7414L21.1476 23.9498C22.9687 24.2944 24.3665 24.1566 24.9375 22.493C25.4296 21.1641 24.9375 20.3766 23.9531 19.8745C24.6618 19.6875 25.1934 19.2445 25.341 18.2798C25.5379 16.9706 24.5339 16.2717 23.1754 15.7992Z" fill="#34C38F"/>
</svg>
